<?xml version="1.0" encoding="UTF-8" standalone="no"?>
<svg width="228px" height="228px" viewBox="0 0 228 228" version="1.1" xmlns="http://www.w3.org/2000/svg" xmlns:xlink="http://www.w3.org/1999/xlink" xmlns:sketch="http://www.bohemiancoding.com/sketch/ns">
    <title>Slice 1</title>
    <description>Created with Sketch (http://www.bohemiancoding.com/sketch)</description>
    <defs></defs>
    <g id="Page-1" stroke="none" stroke-width="1" fill="none" fill-rule="evenodd" sketch:type="MSPage">
        <path d="M114,228 C176.960465,228 228,176.960465 228,114 C228,51.0395354 176.960465,0 114,0 C51.0395354,0 0,51.0395354 0,114 C0,176.960465 51.0395354,228 114,228 Z M80.7116101,135.300465 C84.1409521,139.524052 88.8283959,141.720317 94.5777859,141.689907 C100.376215,141.689907 104.968963,139.55953 108.354339,135.300465 C111.736333,131.0414 113.429021,125.224677 113.429021,117.848605 L113.429021,67 L134,67 L134,118.505795 C134,131.855708 130.306862,142.108887 122.923969,149.265332 C115.541076,156.421777 106.069802,160 94.5693309,160 C83.05195,160 73.5806755,156.399815 66.1538165,149.197755 C58.7151205,141.923049 55,131.786441 55,118.505795 L55,67 L75.5675971,67 L75.5675971,117.848605 C75.5675971,125.197646 77.321161,131.110667 80.7031551,135.300465 L80.7116101,135.300465 Z M168,94.4819438 L168,101 L148,101 L148,94.4819438 L153.984456,94.4819438 L153.984456,73.5197404 L148,73.5197404 L148,67 L168,67 L168,73.5197404 L161.765112,73.5197404 L161.765112,94.4836281 L168,94.4836281 L168,94.4819438 Z M163.844733,129 L172.199726,129 L162.510944,143.942863 L173,160 L164.556088,160 L157.931601,149.79749 L151.354993,160 L143,160 L153.444596,144.122034 L143.709644,129 L152.021888,129 L157.931601,138.178676 L163.844733,129 Z M171,111 L171,118 L143,118 L143,111 L171,111 Z" id="Oval-1" fill="#FFFFFF" sketch:type="MSShapeGroup"></path>
    </g>
</svg>