<svg xmlns="http://www.w3.org/2000/svg" xmlns:xlink="http://www.w3.org/1999/xlink" version="1.1" x="0px" y="0px" width="70px" height="55px" viewBox="0 0 70 55" enable-background="new 0 0 70 55" xml:space="preserve">
<g id="Layer_1">
	<path d="M15.205 40.38c2.028 2.5 4.8 3.8 8.2 3.782c3.429 0 6.145-1.261 8.147-3.782c2-2.521 3.001-5.964 3.001-10.33 V-0.048h12.165v30.487c0 7.902-2.184 13.971-6.55 18.207S30.201 55 23.4 55c-6.811 0-12.412-2.131-16.804-6.394 C2.197 44.3 0 38.3 0 30.439V-0.048h12.163V30.05C12.163 34.4 13.2 37.9 15.2 40.38z M66.562 16.317v3.87h-11.58v-3.87 h3.465V3.871h-3.465V0h11.58v3.871h-3.61v12.447H66.562z M64.19 36.833h4.886L63.41 45.59L69.544 55h-4.938l-3.874-5.979L56.886 55 H52l6.108-9.305l-5.693-8.862h4.861l3.456 5.379L64.19 36.833z M69.076 26.07v3.869H52.468V26.07H69.076z"/>
	<g>
		<path d="M274.205-294.572c2.027 2.5 4.8 3.8 8.2 3.782c3.43 0 6.146-1.261 8.148-3.782c1.999-2.521 3-5.964 3-10.33V-335 h12.165v30.487c0 7.902-2.185 13.971-6.55 18.207s-9.955 6.354-16.764 6.354c-6.811 0-12.411-2.131-16.803-6.394 c-4.393-4.261-6.589-10.319-6.589-18.167V-335h12.163v30.098C271.163-300.536 272.178-297.093 274.205-294.572z"/>
	</g>
	<g>
		<path d="M325.562-318.634v3.87h-11.58v-3.87h3.465v-12.447h-3.465v-3.871h11.58v3.871h-3.61v12.447H325.562z"/>
	</g>
	<g>
		<path d="M323.189-298.119h4.887l-5.666 8.758l6.134 9.41h-4.938l-3.873-5.979l-3.847 5.979H311l6.108-9.305l-5.692-8.862h4.86 l3.456 5.379L323.189-298.119z"/>
	</g>
	<rect x="311.5" y="-308.9" width="16.6" height="3.9"/>
</g>
<g id="Layer_3">
</g>
<g id="Layer_2">
	<rect x="791.5" y="70" fill="none" width="497.3" height="67.7"/>
	<text transform="matrix(1 0 0 1 791.5 108.583)" font-family="'Montserrat-Bold'" font-size="52">UI/UX DESIGNER</text>
	<g>
		<path d="M-243.676-409.642c2.028 2.5 4.8 3.8 8.2 3.782c3.429 0 6.145-1.261 8.147-3.782c2-2.521 3.001-5.964 3.001-10.33 v-30.099h12.165v30.488c0 7.902-2.184 13.971-6.55 18.207c-4.366 4.235-9.955 6.354-16.763 6.4 c-6.811 0-12.412-2.131-16.804-6.394c-4.393-4.261-6.589-10.319-6.589-18.167v-30.488h12.163v30.099 C-246.718-415.605-245.703-412.162-243.676-409.642z"/>
	</g>
	<g>
		<path d="M-192.639-398.966v3.869h-11.58v-3.869h3.465v-12.447h-3.465v-3.87h11.58v3.87h-3.61v12.447H-192.639z"/>
	</g>
	<g>
		<path d="M-194.678-449.503h4.886l-5.666 8.758l6.134 9.41h-4.938l-3.874-5.979l-3.847 5.979h-4.886l6.108-9.305l-5.693-8.863 h4.861l3.456 5.38L-194.678-449.503z"/>
	</g>
	<polyline points="-190.1,-423.9 -190.1,-420 -206.7,-420 -206.7,-423.9"/>
	<rect x="-173.4" y="-452" fill="none" width="389.4" height="90"/>
	<text transform="matrix(1 0 0 1 -173.3799 -396.2881)"><tspan x="0" y="0" font-family="'Montserrat-Bold'" font-size="75.0844">IAN </tspan><tspan x="161.7" y="0" font-family="'Montserrat-Bold'" font-size="75.0844">R</tspan><tspan x="215.8" y="0" font-family="'Montserrat-Bold'" font-size="75.0844">O</tspan><tspan x="277.4" y="0" font-family="'Montserrat-Bold'" font-size="75.0844">SE</tspan></text>
</g>
</svg>
